<?xml version="1.0" encoding="utf-8"?>
<!-- Generator: Adobe Illustrator 25.0.0, SVG Export Plug-In . SVG Version: 6.00 Build 0)  -->
<svg version="1.1" id="Layer_1" xmlns="http://www.w3.org/2000/svg" xmlns:xlink="http://www.w3.org/1999/xlink" x="0px" y="0px"
	 viewBox="0 0 41.2 73.7" style="enable-background:new 0 0 41.2 73.7;" xml:space="preserve">
<g id="Layer_2_1_">
	<g id="Layer_1-2">
		<path d="M4.3,73.7c-1.2,0-2.3-0.5-3.1-1.3l-0.1-0.1c-0.8-0.8-1.2-1.9-1.2-3c0-1.2,0.5-2.2,1.3-3l29.4-29.4L1.3,7.4
			C0.4,6.6,0,5.5,0,4.3c0-1.2,0.5-2.2,1.3-3.1C2.1,0.4,3.2,0,4.3,0c1.2,0,2.3,0.5,3.1,1.3l32.5,32.5c1.7,1.7,1.7,4.4,0,6.1L7.3,72.5
			C6.5,73.3,5.5,73.7,4.3,73.7C4.3,73.7,4.3,73.7,4.3,73.7z"/>
	</g>
</g>
</svg>
