<?xml version="1.0" encoding="utf-8"?>
<!-- Generator: Adobe Illustrator 25.3.1, SVG Export Plug-In . SVG Version: 6.00 Build 0)  -->
<svg version="1.1" id="Layer_1" xmlns="http://www.w3.org/2000/svg" xmlns:xlink="http://www.w3.org/1999/xlink" x="0px" y="0px"
	 viewBox="0 0 200.4 327.7" style="enable-background:new 0 0 200.4 327.7;" xml:space="preserve">
<g id="Layer_2_1_">
	<g id="Layer_1-2">
		<path d="M163,300.1c-1.2,2.8-3.9,4.2-6,6c-14.6,12.7-33.1,20.2-52.4,21.3c-30.4,2.1-54.3-10.3-74.1-32.2
			c-15.9-17.5-25.1-38.3-29-61.4c-2.3-13.2-1.6-26.4,0.7-39.6c4.3-24.8,13-48,24-70.5C38.7,98,52.7,73.1,68.1,48.9
			C78.2,33.1,88,17.2,98,1.3c0.2-0.4,0.6-0.7,1-1.3c2.9,2.8,4.8,6.2,6.9,9.3c7.6,11.4,15.4,22.8,22.4,34.6c0.6,1.3,1.3,2.5,2,3.7
			c1.8,2.3,1.4,4.4-0.2,6.7c-7.6,10.9-14.6,22.2-21,33.9c-9,16.3-17.9,32.7-23.9,50.4c-1.1,0.7-5.2,12.1-6.8,16.6
			c-7,19.7-11.3,40.2-12.7,61.1c-0.6,10.9,0.4,21.7,2.7,32.3c4,19.1,11.4,36.5,26.2,50c7.1,6.5,15.9,10.8,25.4,12.4
			c9.2,1.6,18.6-0.2,27.4-3.8C152.7,305,157.8,302.5,163,300.1z"/>
		<path d="M132.1,191.3c-12.2-0.6-21.6-8.5-27.1-21.5c-4.9-11.5-3.8-22.9,0.6-34.3c6.7-17.3,16.7-32.8,27.3-47.8
			c1.5-2.1,2.2-1.3,3.2,0.2c9.9,14.4,19.4,29,26.2,45.3c6.2,14.8,7.1,29.5-2.1,43.3C154.2,185.5,145.8,191.3,132.1,191.3z"/>
	</g>
	<path d="M200.1,223.1c-1.2,20-6.5,39-17.7,56c-3.6,5.2-8.7,10.2-13.2,14.6c0,0-4,2.7-4,2.7l-3.8,1.9c-1.8,0.8-3.4,1.5-5.2,2.4
		c-3.3,1.5-6.6,2.4-9.9,3.8c-6.7,2.8-13.2,4.2-19.3,4.2c-2.2,0-4.4-0.2-6.5-0.5c-8.9-1.5-17.2-5.5-23.9-11.6
		c-12.8-11.8-20.9-27.1-25.3-48.4c-2.3-10.3-3.2-21-2.6-31.5c1.4-20.6,5.6-40.9,12.5-60.3c1-2.9,1.9-5.4,2.7-7.6
		c-0.1,0.8-0.2,1.6-0.3,2.4c-1.3,16.6,2.6,31.6,12.2,45.2c5.7,8,12.9,14.6,21.9,17.9c10,3.7,20.7,4.7,31.2,0.6
		c17.7-6.9,27.9-20.2,33.2-37.8c2.1-7.2,2.8-14.6,3-22.6c2.9,2.9,4.3,6.2,5.7,9.4c3.3,7.7,5.1,15.8,7,24
		C200.4,199.4,200.8,211.3,200.1,223.1z"/>
</g>
</svg>
