<svg xmlns="http://www.w3.org/2000/svg" xmlns:xlink="http://www.w3.org/1999/xlink" viewBox="0 0 200.35 327.67"><defs><linearGradient id="linear-gradient" x1="0.47" y1="163.84" x2="173.92" y2="163.84" gradientUnits="userSpaceOnUse"><stop offset="0" stop-color="#bababa"/><stop offset="0.14" stop-color="#c3c3c3"/><stop offset="0.48" stop-color="#d2d2d2"/><stop offset="0.75" stop-color="#d7d7d7"/><stop offset="0.84" stop-color="#d2d2d2"/><stop offset="0.94" stop-color="#c5c5c5"/><stop offset="1" stop-color="#bababa"/></linearGradient><linearGradient id="linear-gradient-2" x1="101.77" y1="138.84" x2="167.02" y2="138.84" gradientUnits="userSpaceOnUse"><stop offset="0" stop-color="#7c7b7b"/><stop offset="1" stop-color="#999"/></linearGradient><linearGradient id="linear-gradient-3" x1="77" y1="226.81" x2="164.41" y2="221.75" xlink:href="#linear-gradient-2"/></defs><g id="Layer_2" data-name="Layer 2"><g id="Layer_1-2" data-name="Layer 1"><path d="M163,300.09c-1.24,2.75-3.86,4.22-6,6a87.53,87.53,0,0,1-52.42,21.32c-30.41,2.06-54.28-10.31-74.08-32.18-15.85-17.5-25.09-38.29-29-61.39-2.26-13.18-1.64-26.4.69-39.61,4.35-24.76,13-48,24-70.49A760.53,760.53,0,0,1,68.1,48.94C78.16,33.11,88,17.16,98,1.27c.24-.38.56-.72,1-1.27,2.94,2.76,4.78,6.16,6.89,9.33,7.64,11.43,15.44,22.75,22.36,34.64a34.83,34.83,0,0,0,2,3.65c1.76,2.35,1.37,4.42-.22,6.71q-11.36,16.42-21,33.91c-9,16.28-17.88,32.67-23.9,50.39-1.12.73-5.19,12.08-6.77,16.59a225.06,225.06,0,0,0-12.67,61.09,121.73,121.73,0,0,0,2.69,32.34c4,19.11,11.45,36.45,26.22,50A49.73,49.73,0,0,0,120,311c9.23,1.61,18.62-.19,27.41-3.8C152.67,305,157.78,302.46,163,300.09Z" fill="url(#linear-gradient)"/><path d="M132.05,191.26c-12.25-.63-21.56-8.51-27.07-21.47-4.88-11.47-3.8-22.87.61-34.26,6.72-17.33,16.68-32.77,27.34-47.84,1.49-2.11,2.16-1.28,3.19.21,9.95,14.38,19.36,29.05,26.16,45.27,6.23,14.84,7.09,29.47-2.13,43.31C154.16,185.49,145.81,191.29,132.05,191.26Z" fill="url(#linear-gradient-2)"/><path d="M163,300.09c-5.17,2.37-10.28,4.9-15.53,7.07-8.79,3.61-18.18,5.41-27.41,3.8a49.73,49.73,0,0,1-25.38-12.32c-14.77-13.54-22.17-30.88-26.22-50a121.73,121.73,0,0,1-2.69-32.34,225.06,225.06,0,0,1,12.67-61.09c1.58-4.51,5.65-15.86,6.77-16.59.07,4.21-1.23,8.23-1.56,12.42-1.31,16.57,2.62,31.57,12.16,45.17,5.65,8.05,12.87,14.6,21.92,17.89,10,3.66,20.68,4.71,31.24.61,17.68-6.86,27.91-20.16,33.16-37.83,2.14-7.17,2.81-14.58,3-22.57,2.87,2.89,4.28,6.17,5.66,9.38,3.31,7.69,5.14,15.8,7,24,2.65,11.74,3,23.59,2.3,35.41-1.25,20-6.47,39.05-17.68,56C177,287,171,294.49,163,300.09Z" fill="url(#linear-gradient-3)"/></g></g></svg>